<svg xmlns="http://www.w3.org/2000/svg" xmlns:xlink="http://www.w3.org/1999/xlink" width="424" height="59.345" viewBox="0 0 424 59.345">
  <defs>
    <clipPath id="clip-path">
      <rect id="Retângulo_52" data-name="Retângulo 52" width="424" height="59.345" fill="#fff"/>
    </clipPath>
  </defs>
  <g id="Grupo_186" data-name="Grupo 186" transform="translate(0 0)">
    <g id="Grupo_2" data-name="Grupo 2" transform="translate(0 0)" clip-path="url(#clip-path)">
      <path id="Caminho_1" data-name="Caminho 1" d="M11.893,37.248V57.813H0V0H25.709q9.1,0,13.795,4.73T44.194,18.6q0,8.948-4.592,13.8T26.492,37.248Zm.078-10.481h11.5q4.669,0,6.789-1.982t2.12-6.379q0-4.121-2.081-6.239t-6.2-2.119H11.971Z" transform="translate(0 0)" fill="#fff"/>
      <path id="Caminho_2" data-name="Caminho 2" d="M65.9,49.842a14.191,14.191,0,0,1-5.652,5.082,17.947,17.947,0,0,1-8.125,1.747q-6.2,0-9.556-3.532T39.215,43.092q0-6.045,3.355-9.224t11.088-4.357q1.765-.272,4.631-.628,7.261-.939,7.262-4.2a4.2,4.2,0,0,0-1.61-3.709q-1.611-1.12-5.377-1.118a8.753,8.753,0,0,0-5.3,1.374,4.6,4.6,0,0,0-1.845,3.924v.628H40.745V25a12.534,12.534,0,0,1,4.631-10.3q4.632-3.747,12.8-3.749,8.948,0,13.716,3.1A10.032,10.032,0,0,1,76.657,23V47.252a10.889,10.889,0,0,0,.55,3.984,3.836,3.836,0,0,0,1.845,1.982v1.923H67.159a9.955,9.955,0,0,1-.9-2.434,14.007,14.007,0,0,1-.352-2.865m-.2-15.7a30.527,30.527,0,0,1-6.417,2.08q-3.632.786-3.749.825a9.208,9.208,0,0,0-4.22,2.157,5.067,5.067,0,0,0-1.2,3.572,4.819,4.819,0,0,0,1.53,3.749,5.884,5.884,0,0,0,4.121,1.393,9.924,9.924,0,0,0,7.281-2.609,9.546,9.546,0,0,0,2.65-7.124Z" transform="translate(9.573 2.673)" fill="#fff"/>
      <path id="Caminho_3" data-name="Caminho 3" d="M76.677,55.079V12.416h10.6v7.3a16.965,16.965,0,0,1,5.22-6.456A12.177,12.177,0,0,1,99.6,11.2q.666,0,1.04.02a5.841,5.841,0,0,1,.608.058l.039,11.579H97.479q-4.671,0-7.026,2.434T88.1,32.511V55.079Z" transform="translate(18.719 2.734)" fill="#fff"/>
      <path id="Caminho_4" data-name="Caminho 4" d="M126.069,39.049h11.263q-.705,8.125-5.926,12.834t-13.423,4.71q-9.3,0-14.58-6.064t-5.28-16.78q0-10.675,5.4-16.74t14.855-6.064q8.282,0,13.286,4.4t5.594,12.246H125.911a8.5,8.5,0,0,0-2.392-5.219,7.1,7.1,0,0,0-5.064-1.805,6.986,6.986,0,0,0-6.34,3.336q-2.1,3.335-2.1,10.008,0,6.164,2.178,9.479a7.041,7.041,0,0,0,6.26,3.317,6.891,6.891,0,0,0,5.1-1.923,10.055,10.055,0,0,0,2.513-5.73" transform="translate(23.955 2.673)" fill="#fff"/>
      <path id="Caminho_5" data-name="Caminho 5" d="M161.518,42.19H172.9a18.219,18.219,0,0,1-6.966,10.578,21.081,21.081,0,0,1-12.775,3.826q-9.266,0-14.679-6.221t-5.417-16.858q0-10.479,5.337-16.523T153,10.946q9.812,0,15.151,5.947t5.336,16.936c0,.811,0,1.42-.02,1.825a10.442,10.442,0,0,1-.1,1.157H144.878q.233,5.026,2.452,7.575a7.99,7.99,0,0,0,6.379,2.55,9.083,9.083,0,0,0,4.826-1.158,7.849,7.849,0,0,0,2.983-3.589m-16.64-12.874h16.8q-.161-4.317-2.3-6.574a8.064,8.064,0,0,0-6.142-2.258,7.667,7.667,0,0,0-5.869,2.277,10.531,10.531,0,0,0-2.491,6.555" transform="translate(32.484 2.673)" fill="#fff"/>
      <path id="Caminho_6" data-name="Caminho 6" d="M170.509,0h11.422V10.4H170.509Zm0,15.151h11.422V57.815H170.509Z" transform="translate(41.626 0)" fill="#fff"/>
      <path id="Caminho_7" data-name="Caminho 7" d="M186.6,55.079V12.416h10.6v7.3a16.951,16.951,0,0,1,5.219-6.456,12.183,12.183,0,0,1,7.1-2.062c.444,0,.793.006,1.04.02a5.811,5.811,0,0,1,.608.058l.039,11.579H207.4q-4.671,0-7.027,2.434t-2.354,7.221V55.079Z" transform="translate(45.554 2.734)" fill="#fff"/>
      <path id="Caminho_8" data-name="Caminho 8" d="M208.046,33.751q0-10.635,5.77-16.72t15.856-6.084q10.048,0,15.837,6.084t5.789,16.72q0,10.676-5.789,16.76t-15.837,6.083q-10.089,0-15.856-6.083t-5.77-16.76m11.579,0q0,6.358,2.61,9.812a9.651,9.651,0,0,0,14.8,0q2.611-3.454,2.61-9.812,0-6.319-2.59-9.754a8.7,8.7,0,0,0-7.379-3.434A8.786,8.786,0,0,0,222.235,24q-2.613,3.436-2.61,9.754" transform="translate(50.79 2.673)" fill="#fff"/>
      <path id="Caminho_9" data-name="Caminho 9" d="M248.933,57.813V0h20.173q9.458,0,14.209,4.082t4.748,12.168q0,8.359-5.317,12.421t-16.23,4.063H254.232V57.813Zm5.3-29.908H266.6q8.555,0,12.285-2.767t3.729-8.969q0-5.886-3.337-8.654t-10.4-2.767H254.232Z" transform="translate(60.771 0)" fill="#fff"/>
      <path id="Caminho_10" data-name="Caminho 10" d="M285.813,54.864V13.142h4.67v7.3a13.648,13.648,0,0,1,5-6.28,14.145,14.145,0,0,1,7.87-2.08h.549v5.065h-.628q-6.241,0-9.36,3.688T290.8,31.865v23Z" transform="translate(69.775 2.95)" fill="#fff"/>
      <path id="Caminho_11" data-name="Caminho 11" d="M304.774,0h4.789V7.261h-4.789Zm0,16.092h4.789V57.813h-4.789Z" transform="translate(74.404 0)" fill="#fff"/>
      <path id="Caminho_12" data-name="Caminho 12" d="M312.062,54.656,326.7,33.266,312.69,12.934h6.044l10.951,16.643,10.754-16.643h5.847L332.628,33.187l15.19,21.469h-6.082l-11.971-17.7-11.931,17.7Z" transform="translate(76.183 3.158)" fill="#fff"/>
    </g>
  </g>
</svg>
